<svg width="84" height="84" viewBox="0 0 84 84" fill="none" xmlns="http://www.w3.org/2000/svg">
<path d="M36.0417 57.2917L56.3542 44.2708C57.3264 43.6458 57.8125 42.7778 57.8125 41.6667C57.8125 40.5556 57.3264 39.6875 56.3542 39.0625L36.0417 26.0417C35 25.3472 33.9403 25.2944 32.8625 25.8833C31.7847 26.4722 31.2472 27.3931 31.25 28.6458V54.6875C31.25 55.9375 31.7889 56.8583 32.8667 57.45C33.9444 58.0417 35.0028 57.9889 36.0417 57.2917ZM41.6667 83.3333C35.9028 83.3333 30.4861 82.2389 25.4167 80.05C20.3472 77.8611 15.9375 74.8931 12.1875 71.1458C8.4375 67.3958 5.46945 62.9861 3.28333 57.9167C1.09722 52.8472 0.00277778 47.4306 0 41.6667C0 35.9028 1.09444 30.4861 3.28333 25.4167C5.47222 20.3472 8.44028 15.9375 12.1875 12.1875C15.9375 8.4375 20.3472 5.46945 25.4167 3.28333C30.4861 1.09722 35.9028 0.00277778 41.6667 0C47.4306 0 52.8472 1.09444 57.9167 3.28333C62.9861 5.47222 67.3958 8.44028 71.1458 12.1875C74.8958 15.9375 77.8653 20.3472 80.0542 25.4167C82.2431 30.4861 83.3361 35.9028 83.3333 41.6667C83.3333 47.4306 82.2389 52.8472 80.05 57.9167C77.8611 62.9861 74.8931 67.3958 71.1458 71.1458C67.3958 74.8958 62.9861 77.8653 57.9167 80.0542C52.8472 82.2431 47.4306 83.3361 41.6667 83.3333Z" fill="black"/>
</svg>
